<svg width="80" height="80" viewBox="0 0 80 80" fill="none" xmlns="http://www.w3.org/2000/svg">
<g clip-path="url(#clip0_131_335)">
<path opacity="0.2" d="M40 55C48.2843 55 55 48.2843 55 40C55 31.7157 48.2843 25 40 25C31.7157 25 25 31.7157 25 40C25 48.2843 31.7157 55 40 55Z" fill="#003BA4"/>
<path d="M40 40L70 10" stroke="#003BA4" stroke-width="3" stroke-linecap="round" stroke-linejoin="round"/>
<path d="M61.2126 18.7875C55.8989 13.4863 48.7891 10.3726 41.2896 10.0623C33.7901 9.752 26.4473 12.2678 20.7139 17.1119C14.9804 21.956 11.2739 28.7756 10.3275 36.2216C9.38123 43.6676 11.2641 51.1976 15.6036 57.3219C19.943 63.4462 26.4231 67.7187 33.7618 69.2942C41.1004 70.8697 48.7631 69.6334 55.234 65.8299C61.7048 62.0264 66.5124 55.9328 68.7057 48.7545C70.899 41.5762 70.3182 33.8362 67.0783 27.0656" stroke="#003BA4" stroke-width="3" stroke-linecap="round" stroke-linejoin="round"/>
<path d="M50.606 29.3937C48.1247 26.9154 44.8534 25.3849 41.3607 25.0681C37.868 24.7513 34.3748 25.6684 31.4881 27.6599C28.6013 29.6513 26.5036 32.5913 25.5596 35.9689C24.6155 39.3464 24.8847 42.948 26.3205 46.1477C27.7562 49.3473 30.2677 51.9428 33.4184 53.4829C36.5692 55.0231 40.1599 55.4105 43.5667 54.578C46.9735 53.7455 49.9808 51.7456 52.0661 48.9259C54.1514 46.1062 55.1828 42.645 54.981 39.1437" stroke="#003BA4" stroke-width="3" stroke-linecap="round" stroke-linejoin="round"/>
</g>
<defs>
<clipPath id="clip0_131_335">
<rect width="80" height="80" fill="white"/>
</clipPath>
</defs>
</svg>
