<svg width="121" height="24" viewBox="0 0 121 24" fill="none" xmlns="http://www.w3.org/2000/svg">
<path d="M11.5489 2.92705C11.8483 2.00574 13.1517 2.00574 13.4511 2.92705L14.9697 7.60081C15.1035 8.01284 15.4875 8.2918 15.9207 8.2918H20.835C21.8037 8.2918 22.2065 9.53141 21.4228 10.1008L17.447 12.9894C17.0966 13.244 16.9499 13.6954 17.0838 14.1074L18.6024 18.7812C18.9017 19.7025 17.8472 20.4686 17.0635 19.8992L13.0878 17.0106C12.7373 16.756 12.2627 16.756 11.9122 17.0106L7.93648 19.8992C7.15276 20.4686 6.09828 19.7025 6.39763 18.7812L7.91623 14.1074C8.05011 13.6954 7.90345 13.244 7.55296 12.9894L3.57722 10.1008C2.79351 9.53141 3.19628 8.2918 4.16501 8.2918H9.07929C9.51252 8.2918 9.89647 8.01284 10.0303 7.60081L11.5489 2.92705Z" fill="#003BA4"/>
<path d="M35.5489 2.92705C35.8483 2.00574 37.1517 2.00574 37.4511 2.92705L38.9697 7.60081C39.1035 8.01284 39.4875 8.2918 39.9207 8.2918H44.835C45.8037 8.2918 46.2065 9.53141 45.4228 10.1008L41.447 12.9894C41.0966 13.244 40.9499 13.6954 41.0838 14.1074L42.6024 18.7812C42.9017 19.7025 41.8472 20.4686 41.0635 19.8992L37.0878 17.0106C36.7373 16.756 36.2627 16.756 35.9122 17.0106L31.9365 19.8992C31.1528 20.4686 30.0983 19.7025 30.3976 18.7812L31.9162 14.1074C32.0501 13.6954 31.9034 13.244 31.553 12.9894L27.5772 10.1008C26.7935 9.53141 27.1963 8.2918 28.165 8.2918H33.0793C33.5125 8.2918 33.8965 8.01284 34.0303 7.60081L35.5489 2.92705Z" fill="#003BA4"/>
<path d="M59.5489 2.92705C59.8483 2.00574 61.1517 2.00574 61.4511 2.92705L62.9697 7.60081C63.1035 8.01284 63.4875 8.2918 63.9207 8.2918H68.835C69.8037 8.2918 70.2065 9.53141 69.4228 10.1008L65.447 12.9894C65.0966 13.244 64.9499 13.6954 65.0838 14.1074L66.6024 18.7812C66.9017 19.7025 65.8472 20.4686 65.0635 19.8992L61.0878 17.0106C60.7373 16.756 60.2627 16.756 59.9122 17.0106L55.9365 19.8992C55.1528 20.4686 54.0983 19.7025 54.3976 18.7812L55.9162 14.1074C56.0501 13.6954 55.9034 13.244 55.553 12.9894L51.5772 10.1008C50.7935 9.53141 51.1963 8.2918 52.165 8.2918H57.0793C57.5125 8.2918 57.8965 8.01284 58.0303 7.60081L59.5489 2.92705Z" fill="#003BA4"/>
<path d="M83.5489 2.92705C83.8483 2.00574 85.1517 2.00574 85.4511 2.92705L86.9697 7.60081C87.1035 8.01284 87.4875 8.2918 87.9207 8.2918H92.835C93.8037 8.2918 94.2065 9.53141 93.4228 10.1008L89.447 12.9894C89.0966 13.244 88.9499 13.6954 89.0838 14.1074L90.6024 18.7812C90.9017 19.7025 89.8472 20.4686 89.0635 19.8992L85.0878 17.0106C84.7373 16.756 84.2627 16.756 83.9122 17.0106L79.9365 19.8992C79.1528 20.4686 78.0983 19.7025 78.3976 18.7812L79.9162 14.1074C80.0501 13.6954 79.9034 13.244 79.553 12.9894L75.5772 10.1008C74.7935 9.53141 75.1963 8.2918 76.165 8.2918H81.0793C81.5125 8.2918 81.8965 8.01284 82.0303 7.60081L83.5489 2.92705Z" fill="#003BA4"/>
<path d="M107.549 2.92705C107.848 2.00574 109.152 2.00574 109.451 2.92705L110.97 7.60081C111.104 8.01284 111.487 8.2918 111.921 8.2918H116.835C117.804 8.2918 118.206 9.53141 117.423 10.1008L113.447 12.9894C113.097 13.244 112.95 13.6954 113.084 14.1074L114.602 18.7812C114.902 19.7025 113.847 20.4686 113.064 19.8992L109.088 17.0106C108.737 16.756 108.263 16.756 107.912 17.0106L103.936 19.8992C103.153 20.4686 102.098 19.7025 102.398 18.7812L103.916 14.1074C104.05 13.6954 103.903 13.244 103.553 12.9894L99.5772 10.1008C98.7935 9.53141 99.1963 8.2918 100.165 8.2918H105.079C105.513 8.2918 105.896 8.01284 106.03 7.60081L107.549 2.92705Z" fill="#003BA4"/>
</svg>
