<svg width="133" height="44" viewBox="0 0 133 44" fill="none" xmlns="http://www.w3.org/2000/svg">
<path d="M57.0301 23.3272C57.0301 29.5734 52.1437 34.1761 46.147 34.1761C40.1504 34.1761 35.264 29.5734 35.264 23.3272C35.264 17.037 40.1504 12.4783 46.147 12.4783C52.1437 12.4783 57.0301 17.037 57.0301 23.3272ZM52.266 23.3272C52.266 19.424 49.434 16.7533 46.147 16.7533C42.8601 16.7533 40.0281 19.424 40.0281 23.3272C40.0281 27.1914 42.8601 29.9011 46.147 29.9011C49.434 29.9011 52.266 27.1865 52.266 23.3272Z" fill="white"/>
<path d="M80.5106 23.3272C80.5106 29.5734 75.6243 34.1761 69.6276 34.1761C63.6309 34.1761 58.7446 29.5734 58.7446 23.3272C58.7446 17.0419 63.6309 12.4783 69.6276 12.4783C75.6243 12.4783 80.5106 17.037 80.5106 23.3272ZM75.7465 23.3272C75.7465 19.424 72.9145 16.7533 69.6276 16.7533C66.3407 16.7533 63.5087 19.424 63.5087 23.3272C63.5087 27.1914 66.3407 29.9011 69.6276 29.9011C72.9145 29.9011 75.7465 27.1865 75.7465 23.3272Z" fill="white"/>
<path d="M103.009 13.1338V32.6109C103.009 40.6229 98.2837 43.8952 92.6979 43.8952C87.4398 43.8952 84.2752 40.3783 83.0817 37.5022L87.2295 35.7756C87.9681 37.5414 89.7778 39.6251 92.693 39.6251C96.2685 39.6251 98.4843 37.4191 98.4843 33.2664V31.706H98.3179C97.2517 33.0218 95.1973 34.1713 92.605 34.1713C87.1806 34.1713 82.2111 29.4463 82.2111 23.3664C82.2111 17.2425 87.1806 12.4783 92.605 12.4783C95.1925 12.4783 97.2468 13.6278 98.3179 14.9044H98.4843V13.1386H103.009V13.1338ZM98.8217 23.3664C98.8217 19.5463 96.2734 16.7533 93.0305 16.7533C89.7436 16.7533 86.9898 19.5463 86.9898 23.3664C86.9898 27.1473 89.7436 29.9011 93.0305 29.9011C96.2734 29.9011 98.8217 27.1473 98.8217 23.3664Z" fill="white"/>
<path d="M110.468 1.71787V33.5113H105.822V1.71787H110.468Z" fill="white"/>
<path d="M128.577 26.8975L132.274 29.3627C131.081 31.1285 128.205 34.1709 123.235 34.1709C117.072 34.1709 112.47 29.4067 112.47 23.322C112.47 16.8703 117.111 12.473 122.702 12.473C128.332 12.473 131.086 16.9535 131.986 19.3747L132.48 20.6073L117.977 26.6138C119.088 28.7904 120.814 29.9008 123.235 29.9008C125.661 29.9008 127.344 28.7073 128.577 26.8975ZM117.195 22.9942L126.889 18.9687C126.356 17.6138 124.752 16.6698 122.864 16.6698C120.442 16.6698 117.072 18.8073 117.195 22.9942Z" fill="white"/>
<path d="M17.675 20.5045V15.9018H33.1851C33.3367 16.704 33.415 17.6529 33.415 18.68C33.415 22.1333 32.471 26.4034 29.4286 29.4458C26.4694 32.5273 22.6885 34.1708 17.6798 34.1708C8.39627 34.1708 0.589844 26.6088 0.589844 17.3251C0.589844 8.04145 8.39627 0.479492 17.6798 0.479492C22.8157 0.479492 26.4743 2.49471 29.2232 5.12134L25.9754 8.36917C24.0042 6.52025 21.3336 5.08221 17.675 5.08221C10.8957 5.08221 5.59359 10.5458 5.59359 17.3251C5.59359 24.1045 10.8957 29.5681 17.675 29.5681C22.0722 29.5681 24.5765 27.8023 26.1808 26.198C27.4819 24.8969 28.3379 23.0382 28.6754 20.4996L17.675 20.5045Z" fill="white"/>
</svg>
