<svg width="64" height="64" viewBox="0 0 64 64" fill="none" xmlns="http://www.w3.org/2000/svg">
<g clip-path="url(#clip0_131_347)">
<path opacity="0.2" d="M27 36H10C9.46957 36 8.96086 35.7893 8.58579 35.4142C8.21071 35.0391 8 34.5304 8 34V18C8 17.4696 8.21071 16.9609 8.58579 16.5858C8.96086 16.2107 9.46957 16 10 16H25C25.5304 16 26.0391 16.2107 26.4142 16.5858C26.7893 16.9609 27 17.4696 27 18V36Z" fill="#003BA4"/>
<path opacity="0.2" d="M56 36H39C38.4696 36 37.9609 35.7893 37.5858 35.4142C37.2107 35.0391 37 34.5304 37 34V18C37 17.4696 37.2107 16.9609 37.5858 16.5858C37.9609 16.2107 38.4696 16 39 16H54C54.5304 16 55.0391 16.2107 55.4142 16.5858C55.7893 16.9609 56 17.4696 56 18V36Z" fill="#003BA4"/>
<path d="M27 36H10C9.46957 36 8.96086 35.7893 8.58579 35.4142C8.21071 35.0391 8 34.5304 8 34V18C8 17.4696 8.21071 16.9609 8.58579 16.5858C8.96086 16.2107 9.46957 16 10 16H25C25.5304 16 26.0391 16.2107 26.4142 16.5858C26.7893 16.9609 27 17.4696 27 18V40C27 42.6522 25.9464 45.1957 24.0711 47.0711C22.1957 48.9464 19.6522 50 17 50" stroke="#003BA4" stroke-width="3" stroke-linecap="round" stroke-linejoin="round"/>
<path d="M56 36H39C38.4696 36 37.9609 35.7893 37.5858 35.4142C37.2107 35.0391 37 34.5304 37 34V18C37 17.4696 37.2107 16.9609 37.5858 16.5858C37.9609 16.2107 38.4696 16 39 16H54C54.5304 16 55.0391 16.2107 55.4142 16.5858C55.7893 16.9609 56 17.4696 56 18V40C56 42.6522 54.9464 45.1957 53.0711 47.0711C51.1957 48.9464 48.6522 50 46 50" stroke="#003BA4" stroke-width="3" stroke-linecap="round" stroke-linejoin="round"/>
</g>
<defs>
<clipPath id="clip0_131_347">
<rect width="64" height="64" fill="white"/>
</clipPath>
</defs>
</svg>
